#N canvas 56 96 551 672 12;
#X obj 69 120 sigmund~;
#X floatatom 69 228 5 0 0 0 - - -;
#X obj 68 67 adc~ 1;
#X obj 69 168 mtof;
#X obj 69 293 oscformat /freq;
#X msg 269 373 disconnect;
#X obj 166 440 netsend -u -b;
#X obj 166 479 print;
#X obj 451 378 print;
#X obj 69 334 list prepend send;
#X obj 69 374 list trim;
#X msg 268 344 connect 127.0.0.1 32000;
#X obj 268 261 metro 30000;
#X obj 268 226 loadbang;
#X obj 268 310 bng 15 250 50 0 empty empty empty 17 7 0 10 -262144
-1 -1;
#X connect 0 0 3 0;
#X connect 1 0 4 0;
#X connect 2 0 0 0;
#X connect 3 0 1 0;
#X connect 4 0 9 0;
#X connect 5 0 6 0;
#X connect 6 0 7 0;
#X connect 9 0 10 0;
#X connect 10 0 6 0;
#X connect 11 0 6 0;
#X connect 11 0 8 0;
#X connect 12 0 14 0;
#X connect 13 0 12 0;
#X connect 14 0 11 0;
